<svg width="19" height="14" viewBox="0 0 19 14" fill="none" xmlns="http://www.w3.org/2000/svg">
<path d="M13.7071 1.79302L13 1.08591L11.5858 2.50012L12.2929 3.20723L13 2.50012L13.7071 1.79302ZM18 7.50012L18.7071 8.20723L18.7071 6.79302L18 7.50012ZM12.2929 11.793L11.5858 12.5001L13 13.9143L13.7071 13.2072L13 12.5001L12.2929 11.793ZM1.21777 6.40832L0.326767 6.86231L0.326767 6.86231L1.21777 6.40832ZM2.09241 7.28213L2.5464 6.39113L2.5464 6.39113L2.09241 7.28213ZM2 1.49993L2 0.499926L1.04909e-06 0.499926L9.61668e-07 1.49993L1 1.49993L2 1.49993ZM13 2.50012L12.2929 3.20723L17.2929 8.20723L18 7.50012L18.7071 6.79302L13.7071 1.79302L13 2.50012ZM18 7.50012L17.2929 6.79302L12.2929 11.793L13 12.5001L13.7071 13.2072L18.7071 8.20723L18 7.50012ZM10.2 7.50012L10.2 8.50012L18 8.50012L18 7.50012L18 6.50012L10.2 6.50012L10.2 7.50012ZM1 4.30321L7.16597e-07 4.30321C6.69173e-07 4.84568 -0.00077757 5.31287 0.0305449 5.69616C0.0628153 6.09106 0.13407 6.48413 0.326767 6.86231L1.21777 6.40832L2.10878 5.95433C2.0837 5.90512 2.04607 5.80458 2.0239 5.53326C2.00078 5.25032 2 4.87866 2 4.30321L1 4.30321ZM10.2 7.50012L10.2 6.50012C9.63998 6.50012 7.72667 6.50011 5.90146 6.47298C4.98762 6.4594 4.10418 6.43913 3.42641 6.40914C3.08598 6.39407 2.80927 6.37704 2.61103 6.35845C2.51074 6.34905 2.44436 6.3405 2.40612 6.33412C2.32514 6.32062 2.41854 6.32598 2.5464 6.39113L2.09241 7.28213L1.63842 8.17314C1.81976 8.26554 2.01454 8.29644 2.0772 8.30689C2.1826 8.32446 2.30211 8.33826 2.42432 8.34972C2.67107 8.37286 2.98578 8.39159 3.33798 8.40718C4.04547 8.43849 4.95217 8.4591 5.87174 8.47276C7.71334 8.50013 9.63991 8.50012 10.2 8.50012L10.2 7.50012ZM1.21777 6.40832L0.326767 6.86231C0.614832 7.42767 1.07481 7.88597 1.63842 8.17314L2.09241 7.28213L2.5464 6.39113C2.35736 6.29481 2.20421 6.14162 2.10878 5.95433L1.21777 6.40832ZM1 1.49993L9.61668e-07 1.49993L7.16597e-07 4.30321L1 4.30321L2 4.30321L2 1.49993L1 1.49993Z" fill="#F6F6F6"/>
</svg>
